<svg width="25" height="24" viewBox="0 0 25 24" fill="none" xmlns="http://www.w3.org/2000/svg">
<path d="M23.1291 20.5425L3.63234 1.09702C3.1429 0.608863 2.34935 0.608865 1.8599 1.09702C1.37046 1.58518 1.37046 2.37664 1.8599 2.8648L21.3566 22.3102C21.8461 22.7984 22.6396 22.7984 23.1291 22.3102C23.6185 21.8221 23.6185 21.0306 23.1291 20.5425Z" fill="black"/>
<path d="M21.3566 0.883816L1.85985 20.3293C1.37041 20.8174 1.37041 21.6089 1.85985 22.097C2.3493 22.5852 3.14285 22.5852 3.63229 22.097L23.129 2.65159C23.6185 2.16344 23.6185 1.37198 23.129 0.883821C22.6396 0.395663 21.846 0.395661 21.3566 0.883816Z" fill="black"/>
</svg>
