<svg width="816" height="162" viewBox="0 0 816 162" fill="none" xmlns="http://www.w3.org/2000/svg">
<path opacity="0.3" d="M-5.7 3.99999V1.99999H-7.7V3.99999H-5.7ZM108.26 26.22L106.81 27.5979L106.817 27.6052L106.824 27.6125L108.26 26.22ZM108.26 135.78L106.824 134.387L106.817 134.395L106.81 134.402L108.26 135.78ZM-5.7 158H-7.7V160H-5.7V158ZM24.66 128.96H22.66V130.96H24.66V128.96ZM88.02 115.76L89.47 117.137L89.4813 117.126L89.4923 117.114L88.02 115.76ZM88.02 46.46L86.5587 47.8255L86.5643 47.8315L86.57 47.8375L88.02 46.46ZM24.66 33.04V31.04H22.66V33.04H24.66ZM-5.7 5.99999H55.46V1.99999H-5.7V5.99999ZM55.46 5.99999C76.0526 5.99999 93.1219 13.1965 106.81 27.5979L109.71 24.8421C95.2381 9.61684 77.1074 1.99999 55.46 1.99999V5.99999ZM106.824 27.6125C120.662 41.8784 127.6 59.6267 127.6 81H131.6C131.6 58.6666 124.311 39.895 109.696 24.8275L106.824 27.6125ZM127.6 81C127.6 102.373 120.662 120.122 106.824 134.387L109.696 137.173C124.311 122.105 131.6 103.333 131.6 81H127.6ZM106.81 134.402C93.1219 148.804 76.0526 156 55.46 156V160C77.1074 160 95.2381 152.383 109.71 137.158L106.81 134.402ZM55.46 156H-5.7V160H55.46V156ZM-3.7 158V3.99999H-7.7V158H-3.7ZM24.66 130.96H55.46V126.96H24.66V130.96ZM55.46 130.96C69.2944 130.96 80.6927 126.377 89.47 117.137L86.57 114.382C78.6273 122.743 68.3189 126.96 55.46 126.96V130.96ZM89.4923 117.114C98.2394 107.599 102.56 95.5061 102.56 81H98.56C98.56 94.6539 94.5206 105.734 86.5477 114.406L89.4923 117.114ZM102.56 81C102.56 66.355 98.2432 54.3174 89.47 45.0825L86.57 47.8375C94.5168 56.2026 98.56 67.1916 98.56 81H102.56ZM89.4813 45.0945C80.7068 35.7042 69.3051 31.04 55.46 31.04V35.04C68.3082 35.04 78.6132 39.3224 86.5587 47.8255L89.4813 45.0945ZM55.46 31.04H24.66V35.04H55.46V31.04ZM22.66 33.04V128.96H26.66V33.04H22.66ZM156.136 158H154.136V160H156.136V158ZM156.136 3.99999V1.99999H154.136V3.99999H156.136ZM186.496 3.99999H188.496V1.99999H186.496V3.99999ZM186.496 158V160H188.496V158H186.496ZM158.136 158V3.99999H154.136V158H158.136ZM156.136 5.99999H186.496V1.99999H156.136V5.99999ZM184.496 3.99999V158H188.496V3.99999H184.496ZM186.496 156H156.136V160H186.496V156ZM293.923 75.28V73.28H291.923V75.28H293.923ZM371.143 75.28H373.143V73.28H371.143V75.28ZM350.023 140.62L348.632 139.184L350.023 140.62ZM236.283 137.98L234.869 139.394L234.876 139.401L234.882 139.407L236.283 137.98ZM236.063 24.24L234.649 22.8258L234.642 22.8325L236.063 24.24ZM332.863 10.6L331.908 12.3574V12.3574L332.863 10.6ZM360.803 36.78L361.802 38.5129L363.583 37.4865L362.508 35.7343L360.803 36.78ZM334.843 51.74L333.114 52.7452L334.116 54.4676L335.842 53.4729L334.843 51.74ZM318.123 36.34L319.059 34.5724L318.123 36.34ZM257.183 44.92L258.597 46.3342L258.608 46.3233L258.619 46.3123L257.183 44.92ZM257.403 117.3L255.989 118.714L255.994 118.72L256 118.725L257.403 117.3ZM324.723 123.68L323.621 122.011L324.723 123.68ZM340.563 102.12L342.478 102.697L343.255 100.12H340.563V102.12ZM293.923 102.12H291.923V104.12H293.923V102.12ZM293.923 77.28H371.143V73.28H293.923V77.28ZM369.143 75.28V87.16H373.143V75.28H369.143ZM369.143 87.16C369.143 108.691 362.273 125.968 348.632 139.184L351.415 142.056C365.933 127.992 373.143 109.629 373.143 87.16H369.143ZM348.632 139.184C334.977 152.412 317.314 159.08 295.463 159.08V163.08C318.199 163.08 336.91 156.108 351.415 142.056L348.632 139.184ZM295.463 159.08C272.181 159.08 252.971 151.554 237.684 136.553L234.882 139.407C250.982 155.206 271.226 163.08 295.463 163.08V159.08ZM237.697 136.566C222.532 121.4 214.963 102.991 214.963 81.22H210.963C210.963 104.035 218.941 123.467 234.869 139.394L237.697 136.566ZM214.963 81.22C214.963 59.2921 222.465 40.8091 237.484 25.6475L234.642 22.8325C218.861 38.7642 210.963 58.2679 210.963 81.22H214.963ZM237.477 25.6542C252.632 10.4993 271.329 2.91999 293.703 2.91999V-1.08001C270.317 -1.08001 250.587 6.88737 234.649 22.8258L237.477 25.6542ZM293.703 2.91999C307.614 2.91999 320.337 6.07167 331.908 12.3574L333.818 8.84255C321.629 2.22164 308.245 -1.08001 293.703 -1.08001V2.91999ZM331.908 12.3574C343.496 18.6517 352.544 27.1391 359.098 37.8257L362.508 35.7343C355.569 24.4209 345.991 15.455 333.818 8.84255L331.908 12.3574ZM359.805 35.0471L333.845 50.0071L335.842 53.4729L361.802 38.5129L359.805 35.0471ZM336.572 50.7348C332.689 44.0559 326.815 38.6788 319.059 34.5724L317.187 38.1076C324.391 41.9212 329.664 46.8108 333.114 52.7452L336.572 50.7348ZM319.059 34.5724C311.274 30.451 302.737 28.4 293.483 28.4V32.4C302.123 32.4 310.012 34.3089 317.187 38.1076L319.059 34.5724ZM293.483 28.4C278.188 28.4 265.55 33.4189 255.747 43.5277L258.619 46.3123C267.59 37.0611 279.152 32.4 293.483 32.4V28.4ZM255.769 43.5058C245.962 53.3126 241.103 65.9435 241.103 81.22H245.103C245.103 66.8698 249.631 55.3008 258.597 46.3342L255.769 43.5058ZM241.103 81.22C241.103 96.2253 246.05 108.775 255.989 118.714L258.817 115.886C249.69 106.758 245.103 95.2547 245.103 81.22H241.103ZM256 118.725C265.979 128.55 279.281 133.38 295.683 133.38V129.38C280.112 129.38 267.894 124.823 258.806 115.875L256 118.725ZM295.683 133.38C307.566 133.38 317.653 130.746 325.825 125.349L323.621 122.011C316.246 126.881 306.974 129.38 295.683 129.38V133.38ZM325.825 125.349C334.004 119.948 339.562 112.368 342.478 102.697L338.648 101.543C335.991 110.352 330.989 117.145 323.621 122.011L325.825 125.349ZM340.563 100.12H293.923V104.12H340.563V100.12ZM295.923 102.12V75.28H291.923V102.12H295.923ZM397.737 158H395.737V160H397.737V158ZM397.737 3.99999V1.99999H395.737V3.99999H397.737ZM428.098 3.99999H430.098V1.99999H428.098V3.99999ZM428.098 158V160H430.098V158H428.098ZM399.737 158V3.99999H395.737V158H399.737ZM397.737 5.99999H428.098V1.99999H397.737V5.99999ZM426.098 3.99999V158H430.098V3.99999H426.098ZM428.098 156H397.737V160H428.098V156ZM450.165 3.99999V1.99999H448.165V3.99999H450.165ZM563.465 3.99999H565.465V1.99999H563.465V3.99999ZM563.465 33.04V35.04H565.465V33.04H563.465ZM521.885 33.04V31.04H519.885V33.04H521.885ZM521.885 158V160H523.885V158H521.885ZM491.525 158H489.525V160H491.525V158ZM491.525 33.04H493.525V31.04H491.525V33.04ZM450.165 33.04H448.165V35.04H450.165V33.04ZM450.165 5.99999H563.465V1.99999H450.165V5.99999ZM561.465 3.99999V33.04H565.465V3.99999H561.465ZM563.465 31.04H521.885V35.04H563.465V31.04ZM519.885 33.04V158H523.885V33.04H519.885ZM521.885 156H491.525V160H521.885V156ZM493.525 158V33.04H489.525V158H493.525ZM491.525 31.04H450.165V35.04H491.525V31.04ZM452.165 33.04V3.99999H448.165V33.04H452.165ZM706.241 158V160H709.064L708.128 157.337L706.241 158ZM673.241 158L671.344 158.632L671.8 160H673.241V158ZM664.001 130.28L665.899 129.648L665.443 128.28H664.001V130.28ZM602.621 130.28V128.28H601.18L600.724 129.648L602.621 130.28ZM593.381 158V160H594.823L595.279 158.632L593.381 158ZM560.601 158L558.714 157.339L557.782 160H560.601V158ZM614.501 3.99999V1.99999H613.082L612.614 3.33929L614.501 3.99999ZM652.121 3.99999L654.008 3.33689L653.538 1.99999H652.121V3.99999ZM633.421 38.98L635.317 38.3436L633.421 32.695L631.525 38.3436L633.421 38.98ZM612.301 101.9L610.405 101.264L609.52 103.9H612.301V101.9ZM654.541 101.9V103.9H657.322L656.437 101.264L654.541 101.9ZM706.241 156H673.241V160H706.241V156ZM675.139 157.368L665.899 129.648L662.104 130.912L671.344 158.632L675.139 157.368ZM664.001 128.28H602.621V132.28H664.001V128.28ZM600.724 129.648L591.484 157.368L595.279 158.632L604.519 130.912L600.724 129.648ZM593.381 156H560.601V160H593.381V156ZM562.489 158.661L616.389 4.66069L612.614 3.33929L558.714 157.339L562.489 158.661ZM614.501 5.99999H652.121V1.99999H614.501V5.99999ZM650.235 4.66309L704.355 158.663L708.128 157.337L654.008 3.33689L650.235 4.66309ZM631.525 38.3436L610.405 101.264L614.197 102.536L635.317 39.6164L631.525 38.3436ZM612.301 103.9H654.541V99.9H612.301V103.9ZM656.437 101.264L635.317 38.3436L631.525 39.6164L652.645 102.536L656.437 101.264ZM756.555 3.99999H758.555V1.99999H756.555V3.99999ZM756.555 128.96H754.555V130.96H756.555V128.96ZM815.295 128.96H817.295V126.96H815.295V128.96ZM815.295 158V160H817.295V158H815.295ZM726.195 158H724.195V160H726.195V158ZM726.195 3.99999V1.99999H724.195V3.99999H726.195ZM754.555 3.99999V128.96H758.555V3.99999H754.555ZM756.555 130.96H815.295V126.96H756.555V130.96ZM813.295 128.96V158H817.295V128.96H813.295ZM815.295 156H726.195V160H815.295V156ZM728.195 158V3.99999H724.195V158H728.195ZM726.195 5.99999H756.555V1.99999H726.195V5.99999Z" fill="white"/>
</svg>
