<svg width="16" height="16" viewBox="0 0 16 16" fill="none" xmlns="http://www.w3.org/2000/svg">
<g clip-path="url(#clip0_98_501)">
<path d="M12.3333 0.666504H3.66667C2.69453 0.667563 1.76252 1.05421 1.07511 1.74162C0.387707 2.42902 0.00105878 3.36104 0 4.33317L0 11.6665C0.00105878 12.6386 0.387707 13.5707 1.07511 14.2581C1.76252 14.9455 2.69453 15.3321 3.66667 15.3332H12.3333C13.3055 15.3321 14.2375 14.9455 14.9249 14.2581C15.6123 13.5707 15.9989 12.6386 16 11.6665V4.33317C15.9989 3.36104 15.6123 2.42902 14.9249 1.74162C14.2375 1.05421 13.3055 0.667563 12.3333 0.666504ZM12.3333 2.6665C12.7376 2.66785 13.1274 2.81754 13.4287 3.08717L9.09533 7.4205C8.80101 7.70161 8.40967 7.85847 8.00267 7.85847C7.59567 7.85847 7.20432 7.70161 6.91 7.4205L2.57667 3.08717C2.87656 2.81875 3.2642 2.66915 3.66667 2.6665H12.3333ZM12.3333 13.3332H3.66667C3.22464 13.3332 2.80072 13.1576 2.48816 12.845C2.17559 12.5325 2 12.1085 2 11.6665V5.3445L5.49267 8.83717C5.82184 9.16649 6.21267 9.42772 6.64283 9.60595C7.07299 9.78419 7.53405 9.87592 7.99967 9.87592C8.46529 9.87592 8.92635 9.78419 9.35651 9.60595C9.78666 9.42772 10.1775 9.16649 10.5067 8.83717L14 5.3445V11.6665C14 12.1085 13.8244 12.5325 13.5118 12.845C13.1993 13.1576 12.7754 13.3332 12.3333 13.3332Z" fill="#626262"/>
</g>
<defs>
<clipPath id="clip0_98_501">
<rect width="16" height="16" fill="white"/>
</clipPath>
</defs>
</svg>
