<svg width="19" height="17" viewBox="0 0 19 17" fill="none" xmlns="http://www.w3.org/2000/svg">
<path fill-rule="evenodd" clip-rule="evenodd" d="M1.37322 7.20078C6.45415 4.98711 9.84223 3.52771 11.5375 2.82261C16.3777 0.809387 17.3835 0.459669 18.039 0.448121C18.1832 0.445581 18.5056 0.481313 18.7144 0.650757C18.8907 0.793833 18.9392 0.987107 18.9624 1.12276C18.9857 1.25841 19.0146 1.56743 18.9916 1.80888C18.7293 4.56483 17.5943 11.2528 17.017 14.3395C16.7726 15.6456 16.2916 16.0835 15.8258 16.1264C14.8137 16.2195 14.0451 15.4575 13.0648 14.8149C11.5308 13.8093 10.6642 13.1834 9.17523 12.2022C7.45444 11.0682 8.56996 10.4449 9.55063 9.42635C9.80728 9.15979 14.2668 5.10352 14.3531 4.73556C14.3639 4.68954 14.3739 4.51799 14.272 4.42741C14.1701 4.33683 14.0197 4.36781 13.9111 4.39244C13.7573 4.42736 11.3067 6.04709 6.55946 9.25163C5.86387 9.72927 5.23384 9.96199 4.66934 9.9498C4.04704 9.93635 2.84996 9.59793 1.96006 9.30866C0.868568 8.95386 0.00106714 8.76628 0.076607 8.16371C0.115953 7.84986 0.548157 7.52888 1.37322 7.20078Z" fill="white"/>
</svg>
