<svg width="23" height="24" viewBox="0 0 23 24" fill="none" xmlns="http://www.w3.org/2000/svg">
<path d="M0 23.0186L1.65153 16.8832C0.319612 14.4932 -0.103551 11.7043 0.459691 9.02816C1.02293 6.35205 2.5348 3.96829 4.71786 2.31431C6.90092 0.660327 9.60874 -0.152934 12.3444 0.0237606C15.0801 0.200456 17.6602 1.35525 19.6112 3.27625C21.5621 5.19724 22.7532 7.75558 22.9657 10.4818C23.1782 13.208 22.398 15.9192 20.7682 18.118C19.1384 20.3167 16.7683 21.8554 14.0929 22.4518C11.4175 23.0482 8.61614 22.6623 6.20299 21.3648L0 23.0186ZM6.50209 19.0689L6.88571 19.2959C8.63361 20.3293 10.6751 20.7569 12.6921 20.5121C14.7091 20.2674 16.5883 19.364 18.0368 17.9427C19.4853 16.5214 20.4218 14.6621 20.7003 12.6546C20.9788 10.647 20.5837 8.60394 19.5765 6.84374C18.5694 5.08354 17.0067 3.70509 15.1322 2.92321C13.2576 2.14132 11.1764 1.99993 9.21284 2.52105C7.24929 3.04217 5.51372 4.19654 4.27658 5.80426C3.03945 7.41199 2.37024 9.38275 2.37326 11.4094C2.37162 13.0899 2.83755 14.7378 3.71919 16.1698L3.95977 16.5655L3.03648 19.9898L6.50209 19.0689Z" fill="white"/>
<path fill-rule="evenodd" clip-rule="evenodd" d="M15.8129 12.9848C15.588 12.8039 15.3247 12.6766 15.043 12.6125C14.7613 12.5484 14.4687 12.5494 14.1874 12.6152C13.7647 12.7903 13.4917 13.4518 13.2186 13.7826C13.161 13.8619 13.0764 13.9175 12.9806 13.939C12.8848 13.9605 12.7845 13.9464 12.6984 13.8993C11.1511 13.2948 9.85417 12.1863 9.01822 10.7538C8.94691 10.6644 8.91317 10.5509 8.92408 10.4372C8.935 10.3235 8.98972 10.2184 9.07673 10.1442C9.38132 9.84341 9.60495 9.4709 9.72694 9.06108C9.75403 8.60905 9.65021 8.15878 9.42785 7.76398C9.25594 7.21047 8.92879 6.71761 8.48504 6.34364C8.25617 6.24096 8.0024 6.20654 7.75435 6.24451C7.5063 6.28249 7.27456 6.39125 7.08709 6.55766C6.76164 6.83774 6.50332 7.18706 6.33116 7.57991C6.15899 7.97275 6.07736 8.39912 6.09227 8.8276C6.09328 9.06822 6.12385 9.30781 6.1833 9.54101C6.33429 10.1013 6.56648 10.6366 6.87253 11.13C7.09333 11.5079 7.33426 11.8738 7.59426 12.226C8.43923 13.383 9.50139 14.3654 10.7218 15.1186C11.3342 15.5013 11.9887 15.8125 12.6724 16.046C13.3826 16.3671 14.1668 16.4904 14.9416 16.4027C15.3831 16.3361 15.8014 16.1622 16.1596 15.8964C16.5179 15.6307 16.8052 15.2812 16.9963 14.8786C17.1085 14.6355 17.1426 14.3636 17.0938 14.1004C16.9768 13.5621 16.255 13.2443 15.8129 12.9848Z" fill="white"/>
</svg>
