<svg width="306" height="49" viewBox="0 0 306 49" fill="none" xmlns="http://www.w3.org/2000/svg">
<path d="M15.1752 39.0698C24.9154 39.0698 30.3505 33.1776 30.3505 24.4188V1.22168H22.7629V24.4188C22.7629 29.1433 20.0184 32.1159 15.1752 32.1159C10.3321 32.1159 7.58761 29.1433 7.58761 24.4188V1.22168H0V24.4188C0 33.1776 5.43511 39.0698 15.1752 39.0698Z" fill="#C9C9C9"/>
<path d="M36.7168 38.3791H43.7125V35.5124C44.4658 36.4149 47.264 39.069 52.0533 39.069C60.1253 39.069 65.8295 33.0708 65.8295 24.5245C65.8295 15.9249 60.5559 9.92652 52.4839 9.92652C47.6406 9.92652 44.8425 12.5807 44.1428 13.5362V0H36.7168V38.3791ZM43.9276 24.5774C43.9276 19.3753 47.0488 16.4027 51.1385 16.4027C55.4436 16.4027 58.3496 19.7469 58.3496 24.5774C58.3496 29.5141 55.336 32.5931 51.1385 32.5931C46.6182 32.5931 43.9276 28.9833 43.9276 24.5774Z" fill="#C9C9C9"/>
<path d="M68.5835 24.5768C68.5835 32.9108 74.3413 39.0684 83.3821 39.0684C90.3778 39.0684 94.1447 34.928 95.2208 32.964L90.3239 29.3013C89.5166 30.4689 87.3103 32.6986 83.4897 32.6986C79.3461 32.6986 76.3325 30.0444 76.171 26.3285H95.9741C96.0281 25.7978 96.0281 25.267 96.0281 24.7361C96.0281 15.6589 91.0772 9.9259 82.3595 9.9259C74.3414 9.9259 68.5835 16.1897 68.5835 24.5768ZM76.3864 21.5511C76.7092 18.3661 78.9694 15.9243 82.4673 15.9243C85.8573 15.9243 88.3327 18.1538 88.4942 21.5511H76.3864Z" fill="#C9C9C9"/>
<path d="M115.162 9.9259C111.449 9.9259 108.651 11.89 107.413 14.6503V10.616H100.148V38.3784H107.575V26.2755C107.575 20.7548 109.62 17.3575 115.162 17.3575V9.9259Z" fill="#C9C9C9"/>
<path d="M128.153 39.0684C134.234 39.0684 138.97 35.6711 138.97 30.2567C138.97 20.3302 125.624 22.4535 125.624 18.0476C125.624 16.6675 126.808 15.8181 128.53 15.8181C131.167 15.8181 132.727 17.4106 133.588 18.4723L138.485 14.8626C137.14 12.6862 134.18 9.9259 128.853 9.9259C123.095 9.9259 118.628 13.0047 118.628 18.1538C118.628 28.0272 131.92 26.3817 131.92 30.6282C131.92 32.2209 130.575 33.1231 128.476 33.1231C125.301 33.1231 123.418 31.69 122.019 30.0973L117.66 33.9194C119.166 36.3081 122.611 39.0684 128.153 39.0684Z" fill="#C9C9C9"/>
<path d="M152.457 39.0692C156.116 39.0692 158.807 37.0521 159.99 35.1411V38.3793H167.255V10.6168H159.829V27.2849C159.829 30.2575 157.892 32.4869 154.824 32.4869C152.295 32.4869 150.143 30.5761 150.143 27.4972V10.6168H142.716V26.6479C142.716 32.5401 144.439 39.0692 152.457 39.0692Z" fill="#C9C9C9"/>
<path d="M174.877 46.0223C177.407 47.4025 181.335 48.5703 185.21 48.5703C193.497 48.5703 200.331 45.226 200.331 34.875V10.616H193.335V13.5356C192.528 12.4739 189.676 9.9259 184.941 9.9259C176.922 9.9259 171.218 15.9774 171.218 24.5238C171.218 33.0701 176.546 39.0684 184.671 39.0684C189.568 39.0684 192.313 36.3081 192.905 35.5118V36.7858C192.905 41.0856 189.192 42.3066 185.156 42.3066C181.281 42.3066 178.052 40.8733 177.138 40.3956L174.877 46.0223ZM193.12 24.4706C193.12 29.4074 190.214 32.5924 185.909 32.5924C181.712 32.5924 178.698 29.3542 178.698 24.4706C178.698 19.587 181.658 16.402 185.855 16.402C190.214 16.402 193.12 19.7463 193.12 24.4706Z" fill="#C9C9C9"/>
<path d="M207.985 46.0223C210.514 47.4025 214.442 48.5703 218.317 48.5703C226.604 48.5703 233.438 45.226 233.438 34.875V10.616H226.442V13.5356C225.635 12.4739 222.783 9.9259 218.048 9.9259C210.03 9.9259 204.325 15.9774 204.325 24.5238C204.325 33.0701 209.653 39.0684 217.779 39.0684C222.676 39.0684 225.42 36.3081 226.012 35.5118V36.7858C226.012 41.0856 222.299 42.3066 218.263 42.3066C214.389 42.3066 211.16 40.8733 210.245 40.3956L207.985 46.0223ZM226.227 24.4706C226.227 29.4074 223.321 32.5924 219.016 32.5924C214.819 32.5924 211.805 29.3542 211.805 24.4706C211.805 19.587 214.765 16.402 218.962 16.402C223.321 16.402 226.227 19.7463 226.227 24.4706Z" fill="#C9C9C9"/>
<path d="M237.537 24.5768C237.537 32.9108 243.296 39.0684 252.335 39.0684C259.331 39.0684 263.098 34.928 264.174 32.964L259.278 29.3013C258.469 30.4689 256.264 32.6986 252.444 32.6986C248.298 32.6986 245.287 30.0444 245.124 26.3285H264.927C264.982 25.7978 264.982 25.267 264.982 24.7361C264.982 15.6589 260.031 9.9259 251.312 9.9259C243.296 9.9259 237.537 16.1897 237.537 24.5768ZM245.34 21.5511C245.663 18.3661 247.922 15.9243 251.421 15.9243C254.812 15.9243 257.286 18.1538 257.447 21.5511H245.34Z" fill="#C9C9C9"/>
<path d="M277.713 39.0684C283.794 39.0684 288.53 35.6711 288.53 30.2567C288.53 20.3302 275.185 22.4535 275.185 18.0476C275.185 16.6675 276.368 15.8181 278.089 15.8181C280.727 15.8181 282.288 17.4106 283.148 18.4723L288.046 14.8626C286.701 12.6862 283.741 9.9259 278.412 9.9259C272.654 9.9259 268.188 13.0047 268.188 18.1538C268.188 28.0272 281.48 26.3817 281.48 30.6282C281.48 32.2209 280.134 33.1231 278.036 33.1231C274.862 33.1231 272.977 31.69 271.579 30.0973L267.219 33.9194C268.727 36.3081 272.171 39.0684 277.713 39.0684Z" fill="#C9C9C9"/>
<path d="M293.192 10.6169H290.178V16.5621H293.138V27.4972C293.138 35.035 296.099 38.7509 302.826 38.7509C304.871 38.7509 306 38.4854 306 38.4854V32.2217C305.407 32.2747 305.138 32.2747 304.655 32.2747C301.803 32.2747 300.511 31.4254 300.511 27.285V16.5621H305.784V10.6169H300.511V4.77771H293.192V10.6169Z" fill="#C9C9C9"/>
</svg>
