<svg width="671" height="120" viewBox="0 0 671 120" fill="none" xmlns="http://www.w3.org/2000/svg">
<path opacity="0.1" d="M108.639 117H84.134L77.2725 96.4158H31.6932L24.8318 117H0.490101L40.515 2.64317H68.4507L108.639 117ZM54.5645 28.6185L38.8813 75.3414H70.2478L54.5645 28.6185ZM175.458 55.574H232.8V64.3959C232.8 80.7326 227.572 93.9653 217.117 104.094C206.661 114.223 193.156 119.287 176.602 119.287C158.958 119.287 144.31 113.569 132.656 102.134C121.111 90.589 115.339 76.5395 115.339 59.985C115.339 43.3215 121.057 29.2175 132.493 17.6729C144.037 6.12834 158.305 0.356038 175.295 0.356038C185.859 0.356038 195.552 2.75209 204.374 7.54419C213.196 12.3363 220.112 18.8165 225.122 26.9848L205.844 38.0938C203.122 33.4106 198.983 29.5987 193.429 26.6581C187.874 23.7175 181.775 22.2472 175.131 22.2472C164.131 22.2472 155.146 25.8413 148.176 33.0294C141.206 39.9997 137.72 48.9849 137.72 59.985C137.72 70.7672 141.26 79.6979 148.339 86.7771C155.418 93.7474 164.894 97.2326 176.765 97.2326C185.369 97.2326 192.557 95.3267 198.33 91.5148C204.102 87.7029 208.023 82.3662 210.092 75.5048H175.458V55.574ZM276.352 69.787V95.4356H324.545V117H253.807V2.64317H323.728V24.2076H276.352V48.5493H319.644V69.787H276.352ZM411.572 72.4008V2.64317H434.117V117H416.963L367.953 47.079V117H345.409V2.64317H362.562L411.572 72.4008ZM514.54 119.287C497.441 119.287 483.228 113.569 471.901 102.134C460.683 90.8068 455.075 76.7028 455.075 59.8216C455.075 42.8314 460.683 28.7274 471.901 17.5096C483.228 6.07388 497.441 0.356038 514.54 0.356038C524.887 0.356038 534.416 2.80654 543.129 7.70755C551.951 12.4996 558.813 19.0343 563.714 27.3116L544.273 38.5839C541.441 33.4651 537.411 29.4898 532.184 26.6581C526.956 23.7175 521.075 22.2472 514.54 22.2472C503.431 22.2472 494.446 25.7324 487.585 32.7027C480.832 39.7819 477.456 48.8215 477.456 59.8216C477.456 70.7127 480.832 79.6979 487.585 86.7771C494.446 93.7474 503.431 97.2326 514.54 97.2326C521.075 97.2326 526.956 95.8168 532.184 92.9851C537.52 90.0445 541.55 86.0692 544.273 81.0593L563.714 92.3316C558.813 100.609 551.951 107.198 543.129 112.099C534.416 116.891 524.887 119.287 514.54 119.287ZM645.002 2.64317H670.487L631.279 72.4008V117H608.898V72.4008L569.853 2.64317H595.339L620.17 50.3463L645.002 2.64317Z" fill="white"/>
</svg>
