<svg width="822" height="162" viewBox="0 0 822 162" fill="none" xmlns="http://www.w3.org/2000/svg">
<path opacity="0.3" d="M0.300001 3.99999V1.99999H-1.7V3.99999H0.300001ZM114.26 26.22L112.81 27.5979L112.817 27.6052L112.824 27.6125L114.26 26.22ZM114.26 135.78L112.824 134.387L112.817 134.395L112.81 134.402L114.26 135.78ZM0.300001 158H-1.7V160H0.300001V158ZM30.66 128.96H28.66V130.96H30.66V128.96ZM94.02 115.76L95.47 117.137L95.4813 117.126L95.4923 117.114L94.02 115.76ZM94.02 46.46L92.5587 47.8255L92.5643 47.8315L92.57 47.8375L94.02 46.46ZM30.66 33.04V31.04H28.66V33.04H30.66ZM0.300001 5.99999H61.46V1.99999H0.300001V5.99999ZM61.46 5.99999C82.0526 5.99999 99.1219 13.1965 112.81 27.5979L115.71 24.8421C101.238 9.61684 83.1074 1.99999 61.46 1.99999V5.99999ZM112.824 27.6125C126.662 41.8784 133.6 59.6267 133.6 81H137.6C137.6 58.6666 130.311 39.895 115.696 24.8275L112.824 27.6125ZM133.6 81C133.6 102.373 126.662 120.122 112.824 134.387L115.696 137.173C130.311 122.105 137.6 103.333 137.6 81H133.6ZM112.81 134.402C99.1219 148.804 82.0526 156 61.46 156V160C83.1074 160 101.238 152.383 115.71 137.158L112.81 134.402ZM61.46 156H0.300001V160H61.46V156ZM2.3 158V3.99999H-1.7V158H2.3ZM30.66 130.96H61.46V126.96H30.66V130.96ZM61.46 130.96C75.2944 130.96 86.6927 126.377 95.47 117.137L92.57 114.382C84.6273 122.743 74.3189 126.96 61.46 126.96V130.96ZM95.4923 117.114C104.239 107.599 108.56 95.5061 108.56 81H104.56C104.56 94.6539 100.521 105.734 92.5477 114.406L95.4923 117.114ZM108.56 81C108.56 66.355 104.243 54.3174 95.47 45.0825L92.57 47.8375C100.517 56.2026 104.56 67.1916 104.56 81H108.56ZM95.4813 45.0945C86.7068 35.7042 75.3051 31.04 61.46 31.04V35.04C74.3082 35.04 84.6132 39.3224 92.5587 47.8255L95.4813 45.0945ZM61.46 31.04H30.66V35.04H61.46V31.04ZM28.66 33.04V128.96H32.66V33.04H28.66ZM162.136 158H160.136V160H162.136V158ZM162.136 3.99999V1.99999H160.136V3.99999H162.136ZM192.496 3.99999H194.496V1.99999H192.496V3.99999ZM192.496 158V160H194.496V158H192.496ZM164.136 158V3.99999H160.136V158H164.136ZM162.136 5.99999H192.496V1.99999H162.136V5.99999ZM190.496 3.99999V158H194.496V3.99999H190.496ZM192.496 156H162.136V160H192.496V156ZM299.923 75.28V73.28H297.923V75.28H299.923ZM377.143 75.28H379.143V73.28H377.143V75.28ZM356.023 140.62L354.632 139.184L356.023 140.62ZM242.283 137.98L240.869 139.394L240.876 139.401L240.882 139.407L242.283 137.98ZM242.063 24.24L240.649 22.8258L240.642 22.8325L242.063 24.24ZM338.863 10.6L337.908 12.3574V12.3574L338.863 10.6ZM366.803 36.78L367.802 38.5129L369.583 37.4865L368.508 35.7343L366.803 36.78ZM340.843 51.74L339.114 52.7452L340.116 54.4676L341.842 53.4729L340.843 51.74ZM324.123 36.34L325.059 34.5724L324.123 36.34ZM263.183 44.92L264.597 46.3342L264.608 46.3233L264.619 46.3123L263.183 44.92ZM263.403 117.3L261.989 118.714L261.994 118.72L262 118.725L263.403 117.3ZM330.723 123.68L329.621 122.011L330.723 123.68ZM346.563 102.12L348.478 102.697L349.255 100.12H346.563V102.12ZM299.923 102.12H297.923V104.12H299.923V102.12ZM299.923 77.28H377.143V73.28H299.923V77.28ZM375.143 75.28V87.16H379.143V75.28H375.143ZM375.143 87.16C375.143 108.691 368.273 125.968 354.632 139.184L357.415 142.056C371.933 127.992 379.143 109.629 379.143 87.16H375.143ZM354.632 139.184C340.977 152.412 323.314 159.08 301.463 159.08V163.08C324.199 163.08 342.91 156.108 357.415 142.056L354.632 139.184ZM301.463 159.08C278.181 159.08 258.971 151.554 243.684 136.553L240.882 139.407C256.982 155.206 277.226 163.08 301.463 163.08V159.08ZM243.697 136.566C228.532 121.4 220.963 102.991 220.963 81.22H216.963C216.963 104.035 224.941 123.467 240.869 139.394L243.697 136.566ZM220.963 81.22C220.963 59.2921 228.465 40.8091 243.484 25.6475L240.642 22.8325C224.861 38.7642 216.963 58.2679 216.963 81.22H220.963ZM243.477 25.6542C258.632 10.4993 277.329 2.91999 299.703 2.91999V-1.08001C276.317 -1.08001 256.587 6.88737 240.649 22.8258L243.477 25.6542ZM299.703 2.91999C313.614 2.91999 326.337 6.07167 337.908 12.3574L339.818 8.84255C327.629 2.22164 314.245 -1.08001 299.703 -1.08001V2.91999ZM337.908 12.3574C349.496 18.6517 358.544 27.1391 365.098 37.8257L368.508 35.7343C361.569 24.4209 351.991 15.455 339.818 8.84255L337.908 12.3574ZM365.805 35.0471L339.845 50.0071L341.842 53.4729L367.802 38.5129L365.805 35.0471ZM342.572 50.7348C338.689 44.0559 332.815 38.6788 325.059 34.5724L323.187 38.1076C330.391 41.9212 335.664 46.8108 339.114 52.7452L342.572 50.7348ZM325.059 34.5724C317.274 30.451 308.737 28.4 299.483 28.4V32.4C308.123 32.4 316.012 34.3089 323.187 38.1076L325.059 34.5724ZM299.483 28.4C284.188 28.4 271.55 33.4189 261.747 43.5277L264.619 46.3123C273.59 37.0611 285.152 32.4 299.483 32.4V28.4ZM261.769 43.5058C251.962 53.3126 247.103 65.9435 247.103 81.22H251.103C251.103 66.8698 255.631 55.3008 264.597 46.3342L261.769 43.5058ZM247.103 81.22C247.103 96.2253 252.05 108.775 261.989 118.714L264.817 115.886C255.69 106.758 251.103 95.2547 251.103 81.22H247.103ZM262 118.725C271.979 128.55 285.281 133.38 301.683 133.38V129.38C286.112 129.38 273.894 124.823 264.806 115.875L262 118.725ZM301.683 133.38C313.566 133.38 323.653 130.746 331.825 125.349L329.621 122.011C322.246 126.881 312.974 129.38 301.683 129.38V133.38ZM331.825 125.349C340.004 119.948 345.562 112.368 348.478 102.697L344.648 101.543C341.991 110.352 336.989 117.145 329.621 122.011L331.825 125.349ZM346.563 100.12H299.923V104.12H346.563V100.12ZM301.923 102.12V75.28H297.923V102.12H301.923ZM403.737 158H401.737V160H403.737V158ZM403.737 3.99999V1.99999H401.737V3.99999H403.737ZM434.098 3.99999H436.098V1.99999H434.098V3.99999ZM434.098 158V160H436.098V158H434.098ZM405.737 158V3.99999H401.737V158H405.737ZM403.737 5.99999H434.098V1.99999H403.737V5.99999ZM432.098 3.99999V158H436.098V3.99999H432.098ZM434.098 156H403.737V160H434.098V156ZM456.165 3.99999V1.99999H454.165V3.99999H456.165ZM569.465 3.99999H571.465V1.99999H569.465V3.99999ZM569.465 33.04V35.04H571.465V33.04H569.465ZM527.885 33.04V31.04H525.885V33.04H527.885ZM527.885 158V160H529.885V158H527.885ZM497.525 158H495.525V160H497.525V158ZM497.525 33.04H499.525V31.04H497.525V33.04ZM456.165 33.04H454.165V35.04H456.165V33.04ZM456.165 5.99999H569.465V1.99999H456.165V5.99999ZM567.465 3.99999V33.04H571.465V3.99999H567.465ZM569.465 31.04H527.885V35.04H569.465V31.04ZM525.885 33.04V158H529.885V33.04H525.885ZM527.885 156H497.525V160H527.885V156ZM499.525 158V33.04H495.525V158H499.525ZM497.525 31.04H456.165V35.04H497.525V31.04ZM458.165 33.04V3.99999H454.165V33.04H458.165ZM712.241 158V160H715.064L714.128 157.337L712.241 158ZM679.241 158L677.344 158.632L677.8 160H679.241V158ZM670.001 130.28L671.899 129.648L671.443 128.28H670.001V130.28ZM608.621 130.28V128.28H607.18L606.724 129.648L608.621 130.28ZM599.381 158V160H600.823L601.279 158.632L599.381 158ZM566.601 158L564.714 157.339L563.782 160H566.601V158ZM620.501 3.99999V1.99999H619.082L618.614 3.33929L620.501 3.99999ZM658.121 3.99999L660.008 3.33689L659.538 1.99999H658.121V3.99999ZM639.421 38.98L641.317 38.3436L639.421 32.695L637.525 38.3436L639.421 38.98ZM618.301 101.9L616.405 101.264L615.52 103.9H618.301V101.9ZM660.541 101.9V103.9H663.322L662.437 101.264L660.541 101.9ZM712.241 156H679.241V160H712.241V156ZM681.139 157.368L671.899 129.648L668.104 130.912L677.344 158.632L681.139 157.368ZM670.001 128.28H608.621V132.28H670.001V128.28ZM606.724 129.648L597.484 157.368L601.279 158.632L610.519 130.912L606.724 129.648ZM599.381 156H566.601V160H599.381V156ZM568.489 158.661L622.389 4.66069L618.614 3.33929L564.714 157.339L568.489 158.661ZM620.501 5.99999H658.121V1.99999H620.501V5.99999ZM656.235 4.66309L710.355 158.663L714.128 157.337L660.008 3.33689L656.235 4.66309ZM637.525 38.3436L616.405 101.264L620.197 102.536L641.317 39.6164L637.525 38.3436ZM618.301 103.9H660.541V99.9H618.301V103.9ZM662.437 101.264L641.317 38.3436L637.525 39.6164L658.645 102.536L662.437 101.264ZM762.555 3.99999H764.555V1.99999H762.555V3.99999ZM762.555 128.96H760.555V130.96H762.555V128.96ZM821.295 128.96H823.295V126.96H821.295V128.96ZM821.295 158V160H823.295V158H821.295ZM732.195 158H730.195V160H732.195V158ZM732.195 3.99999V1.99999H730.195V3.99999H732.195ZM760.555 3.99999V128.96H764.555V3.99999H760.555ZM762.555 130.96H821.295V126.96H762.555V130.96ZM819.295 128.96V158H823.295V128.96H819.295ZM821.295 156H732.195V160H821.295V156ZM734.195 158V3.99999H730.195V158H734.195ZM732.195 5.99999H762.555V1.99999H732.195V5.99999Z" fill="white"/>
</svg>
